<svg xmlns="http://www.w3.org/2000/svg" xmlns:xlink="http://www.w3.org/1999/xlink" viewBox="0 0 494.4 151.8"><defs><style>.a,.e,.f,.g,.h,.i,.j,.k,.l,.m,.n,.o{fill:none;}.a,.b,.c,.d{clip-rule:evenodd;}.ad,.b,.s{fill:#c11972;}.c,.v,.x{fill:#2283c5;}.ab,.d,.q{fill:#f5a905;}.e,.f,.g,.h,.i,.j,.k,.l,.m,.n,.o{stroke-miterlimit:10;}.e{stroke:url(#a);}.f{stroke:url(#b);}.g{stroke:url(#c);}.h{stroke:url(#d);}.i{stroke:url(#e);}.j{stroke:url(#f);}.k{stroke:url(#g);}.l{stroke:url(#h);}.m{stroke:url(#i);}.n{stroke:url(#j);}.o{stroke:#f5a905;}.p{clip-path:url(#k);}.r{clip-path:url(#l);}.t{clip-path:url(#m);}.u{fill:#108f38;}.ab,.ad,.v{fill-rule:evenodd;}.w{clip-path:url(#n);}.y{clip-path:url(#o);}.z{clip-path:url(#p);}.aa{clip-path:url(#q);}.ac{clip-path:url(#r);}.ae{clip-path:url(#s);}.af{clip-path:url(#t);}.ag{clip-path:url(#u);}.ah{clip-path:url(#v);}.ai{clip-path:url(#w);}.aj{clip-path:url(#x);}.ak{clip-path:url(#y);}.al{clip-path:url(#z);}.am{clip-path:url(#aa);}.an{clip-path:url(#ab);}.ao{clip-path:url(#ac);}.ap{clip-path:url(#ad);}.aq{clip-path:url(#ae);}.ar{fill:#1d1d1b;}</style><linearGradient id="a" x1="30.44" y1="42.85" x2="30.44" y2="18.46" gradientUnits="userSpaceOnUse"><stop offset="0" stop-color="#c11972"/><stop offset="1" stop-color="#f5a905"/></linearGradient><linearGradient id="b" x1="119.22" y1="124.46" x2="119.22" y2="93.45" gradientUnits="userSpaceOnUse"><stop offset="0" stop-color="#f5a905"/><stop offset="1" stop-color="#2283c5"/></linearGradient><linearGradient id="c" x1="62.29" y1="75" x2="62.29" y2="44.54" gradientUnits="userSpaceOnUse"><stop offset="0" stop-color="#108f38"/><stop offset="1" stop-color="#2283c5"/></linearGradient><linearGradient id="d" x1="86.11" y1="43.42" x2="86.11" y2="9.88" gradientUnits="userSpaceOnUse"><stop offset="0" stop-color="#2283c5"/><stop offset="1" stop-color="#108f38"/></linearGradient><linearGradient id="e" x1="-8.58" y1="2.99" x2="-8.58" y2="-12.23" gradientTransform="matrix(-0.25, 0, 0, 1.83, 57.23, 40.32)" gradientUnits="userSpaceOnUse"><stop offset="0" stop-color="#2283c5"/><stop offset="1" stop-color="#f5a905"/></linearGradient><linearGradient id="f" x1="-186.33" y1="9.3" x2="-186.33" y2="-17.24" gradientTransform="matrix(-0.25, 0, 0, 1.83, 57.23, 40.32)" gradientUnits="userSpaceOnUse"><stop offset="0" stop-color="#c11972"/><stop offset="1" stop-color="#108f38"/></linearGradient><linearGradient id="g" x1="-285.89" y1="11.33" x2="-285.89" y2="8.53" gradientTransform="matrix(-0.25, 0, 0, 1.83, 57.23, 40.32)" gradientUnits="userSpaceOnUse"><stop offset="0" stop-color="#f5a905"/><stop offset="1" stop-color="#c11972"/></linearGradient><linearGradient id="h" x1="-324.38" y1="11.29" x2="-324.38" y2="-9.75" gradientTransform="matrix(-0.25, 0, 0, 1.83, 57.23, 40.32)" xlink:href="#b"/><linearGradient id="i" x1="-44.01" y1="29.8" x2="-44.01" y2="18.99" xlink:href="#f"/><linearGradient id="j" x1="-379.31" y1="106.39" x2="-379.31" y2="91.17" gradientTransform="matrix(0.31, 0, 0, -0.21, 221.59, 113.88)" gradientUnits="userSpaceOnUse"><stop offset="0" stop-color="#c11972"/><stop offset="1" stop-color="#2283c5"/></linearGradient><clipPath id="k"><path class="a" d="M43.49,9.49a9.37,9.37,0,1,1-9.37,9.37,9.36,9.36,0,0,1,9.37-9.37"/></clipPath><clipPath id="l"><path class="a" d="M15.31,30A15.32,15.32,0,1,1,0,45.27,15.32,15.32,0,0,1,15.31,30"/></clipPath><clipPath id="m"><path class="a" d="M47.49,65.43A11.15,11.15,0,1,1,36.34,76.58,11.15,11.15,0,0,1,47.49,65.43"/></clipPath><clipPath id="n"><path class="c" d="M75.4,32A13.15,13.15,0,1,1,62.25,45.11,13.15,13.15,0,0,1,75.4,32"/></clipPath><clipPath id="o"><path class="a" d="M97.35,0A11.13,11.13,0,1,1,86.22,11.13,11.12,11.12,0,0,1,97.35,0"/></clipPath><clipPath id="p"><path class="a" d="M85,84.79A11.15,11.15,0,1,1,73.88,95.94,11.15,11.15,0,0,1,85,84.79"/></clipPath><clipPath id="q"><path class="c" d="M126.83,79.4a13.15,13.15,0,1,1-13.15,13.14A13.14,13.14,0,0,1,126.83,79.4"/></clipPath><clipPath id="r"><path class="d" d="M142.15,48.44A11.15,11.15,0,1,1,131,59.59a11.15,11.15,0,0,1,11.16-11.15"/></clipPath><clipPath id="s"><path class="b" d="M109.19,47.27a8.66,8.66,0,1,1-8.66,8.66,8.66,8.66,0,0,1,8.66-8.66"/></clipPath><clipPath id="t"><path class="a" d="M130.3,17.42a6.69,6.69,0,1,1-6.68,6.69,6.7,6.7,0,0,1,6.68-6.69"/></clipPath><clipPath id="u"><path class="b" d="M71.21,11.43a4.69,4.69,0,1,1-4.68,4.69,4.69,4.69,0,0,1,4.68-4.69"/></clipPath><clipPath id="v"><path class="a" d="M46.94,43.92a4.69,4.69,0,1,1-4.69,4.68,4.68,4.68,0,0,1,4.69-4.68"/></clipPath><clipPath id="w"><path class="a" d="M78.7,66.05A4.69,4.69,0,1,1,74,70.74a4.69,4.69,0,0,1,4.68-4.69"/></clipPath><clipPath id="x"><path class="a" d="M121,36.59a4.69,4.69,0,1,1-4.69,4.69A4.69,4.69,0,0,1,121,36.59"/></clipPath><clipPath id="y"><path class="a" d="M103,71.66a4.69,4.69,0,1,1-4.68,4.68A4.68,4.68,0,0,1,103,71.66"/></clipPath><clipPath id="z"><path class="a" d="M95.87,32.5a2.79,2.79,0,1,1-2.78,2.79,2.79,2.79,0,0,1,2.78-2.79"/></clipPath><clipPath id="aa"><path class="b" d="M115.85,15.86a2.79,2.79,0,1,1-2.79,2.78,2.77,2.77,0,0,1,2.79-2.78"/></clipPath><clipPath id="ab"><path class="a" d="M126.9,68.83a2.79,2.79,0,1,1-2.78,2.78,2.78,2.78,0,0,1,2.78-2.78"/></clipPath><clipPath id="ac"><path class="a" d="M23.72,67.13a4,4,0,1,1-3.94,4,4,4,0,0,1,3.94-4"/></clipPath><clipPath id="ad"><path class="a" d="M112.85,116a5.76,5.76,0,1,1-5.76,5.76,5.76,5.76,0,0,1,5.76-5.76"/></clipPath><clipPath id="ae"><path class="a" d="M105.09,104.28a2.72,2.72,0,1,1-2.72,2.71,2.71,2.71,0,0,1,2.72-2.71"/></clipPath></defs><line class="e" x1="17.86" y1="42.48" x2="43.01" y2="18.83"/><line class="f" x1="111.28" y1="124.23" x2="127.15" y2="93.68"/><line class="g" x1="48.93" y1="74.67" x2="75.65" y2="44.88"/><line class="h" x1="75.61" y1="43.16" x2="96.61" y2="10.14"/><line class="i" x1="75.65" y1="44.88" x2="43.01" y2="18.83"/><line class="j" x1="108.59" y1="56.56" x2="97.21" y2="9.55"/><line class="k" x1="143.32" y1="60.15" x2="111.28" y2="56.85"/><line class="l" x1="143.32" y1="60.15" x2="130.15" y2="23.32"/><line class="m" x1="85.83" y1="93.98" x2="50.2" y2="76.02"/><line class="n" x1="85.23" y1="91.59" x2="125.95" y2="94.58"/><line class="o" x1="112.98" y1="126.02" x2="112.98" y2="151.8"/><g class="p"><rect class="q" x="34.12" y="9.49" width="18.74" height="18.74"/></g><g class="r"><rect class="s" y="29.96" width="30.63" height="30.63"/></g><g class="t"><rect class="u" x="36.34" y="65.43" width="22.3" height="22.3"/></g><path class="v" d="M75.4,32A13.15,13.15,0,1,1,62.25,45.11,13.15,13.15,0,0,1,75.4,32"/><g class="w"><rect class="x" x="62.25" y="31.96" width="26.3" height="26.3"/></g><g class="y"><rect class="u" x="86.22" width="22.25" height="22.25"/></g><g class="z"><rect class="s" x="73.88" y="84.79" width="22.3" height="22.3"/></g><path class="v" d="M126.83,79.4a13.15,13.15,0,1,1-13.15,13.14A13.14,13.14,0,0,1,126.83,79.4"/><g class="aa"><rect class="x" x="113.68" y="79.4" width="26.3" height="26.3"/></g><path class="ab" d="M142.15,48.44A11.15,11.15,0,1,1,131,59.59a11.15,11.15,0,0,1,11.16-11.15"/><g class="ac"><rect class="q" x="130.99" y="48.44" width="22.3" height="22.3"/></g><path class="ad" d="M109.19,47.27a8.66,8.66,0,1,1-8.66,8.66,8.66,8.66,0,0,1,8.66-8.66"/><g class="ae"><rect class="s" x="100.53" y="47.27" width="17.31" height="17.31"/></g><g class="af"><rect class="x" x="123.62" y="17.42" width="13.37" height="13.37"/></g><path class="ad" d="M71.21,11.43a4.69,4.69,0,1,1-4.68,4.69,4.69,4.69,0,0,1,4.68-4.69"/><g class="ag"><rect class="s" x="66.53" y="11.43" width="9.38" height="9.38"/></g><g class="ah"><rect class="u" x="42.25" y="43.92" width="9.38" height="9.38"/></g><g class="ai"><rect class="x" x="74.02" y="66.05" width="9.38" height="9.38"/></g><g class="aj"><rect class="q" x="116.32" y="36.59" width="9.38" height="9.38"/></g><g class="ak"><rect class="u" x="98.27" y="71.66" width="9.38" height="9.38"/></g><g class="al"><rect class="s" x="93.09" y="32.5" width="5.57" height="5.57"/></g><path class="ad" d="M115.85,15.86a2.79,2.79,0,1,1-2.79,2.78,2.77,2.77,0,0,1,2.79-2.78"/><g class="am"><rect class="s" x="113.06" y="15.86" width="5.57" height="5.57"/></g><g class="an"><rect class="x" x="124.12" y="68.83" width="5.57" height="5.57"/></g><g class="ao"><rect class="q" x="19.78" y="67.13" width="7.89" height="7.89"/></g><g class="ap"><rect class="q" x="95.97" y="115.98" width="22.64" height="22.64"/></g><g class="aq"><rect class="q" x="102.37" y="104.28" width="5.43" height="5.43"/></g><path class="q" d="M234.3,88.27H186.86L180,103.5H163L210.11,1.24h.94L258.17,103.5h-17Zm-6.1-13.49L210.61,35.62,193,74.78Z"/><path class="q" d="M266.86,95.85a10.57,10.57,0,1,1,10.57,10.51A10.64,10.64,0,0,1,266.86,95.85Z"/><path class="s" d="M300.05,53.46c0-28.23,23.56-51.91,51.72-51.91,13,.19,25,5.72,34.81,15.29l-9.14,12.37c-7-7-16.16-11.68-26-11.68-18.15,0-35.5,15.91-35.5,36s17.6,35.81,35.56,35.81c10.26,0,19.09-5.1,26-11.94l9.07,12.68c-8.64,8.52-19.64,15-34.56,15C323.61,105.11,300.05,81.74,300.05,53.46Z"/><path class="s" d="M396.64,95.85a10.57,10.57,0,1,1,10.57,10.51A10.64,10.64,0,0,1,396.64,95.85Z"/><path class="x" d="M450.35,18.77V44.44h37.92V60.11H450.35V87.83H494.3V103.5H434.62V3.29H494.3V18.77Z"/><path class="ar" d="M179.35,127.93a13,13,0,0,1-2.77,2.71,6.2,6.2,0,0,1-3.83,1.32,5.13,5.13,0,0,1-3.6-1.27,4.76,4.76,0,0,1-1.4-3.74,14.31,14.31,0,0,1,.59-3.83,20.7,20.7,0,0,1,1.37-3.7,10,10,0,0,1,1.88-2.65,3.08,3.08,0,0,1,2.14-1.06,2,2,0,0,1,1.64.76,3.07,3.07,0,0,1,.57,1.89,2.37,2.37,0,0,1-.16.85,3,3,0,0,1-.35.72q-.19.3-.3.3c-.13,0-.19-.08-.19-.22a1.74,1.74,0,0,1,.08-.33,1.43,1.43,0,0,0,.09-.43,4.34,4.34,0,0,0-.15-1.16,1.41,1.41,0,0,0-.49-.77,1.24,1.24,0,0,0-.81-.31q-1.77,0-3.31,3.41a18.16,18.16,0,0,0-1,3.1,13.9,13.9,0,0,0-.42,3.31,4.43,4.43,0,0,0,.45,2,3.53,3.53,0,0,0,3.28,2,6.32,6.32,0,0,0,3.25-.86,16.11,16.11,0,0,0,2.89-2.21s.14-.22.34-.55.34-.5.44-.5a.23.23,0,0,1,.2.07.56.56,0,0,1,.05.27A2.05,2.05,0,0,1,179.35,127.93Z"/><path class="ar" d="M188.19,128.57a6.62,6.62,0,0,1-2,2.15,5.1,5.1,0,0,1-3,.89,3,3,0,0,1-2.43-.9,3.31,3.31,0,0,1-.79-2.26,12.92,12.92,0,0,1,.43-2.92,12.08,12.08,0,0,1,1.22-3.12c0-.06.16-.3.4-.72a3,3,0,0,1,.8-1,1.51,1.51,0,0,1,.93-.33.84.84,0,0,1,.41.11.32.32,0,0,1,.18.28.82.82,0,0,1-.13.24l-.21.28a10.94,10.94,0,0,0-1.35,2,13.1,13.1,0,0,0-1.07,2.47,9.13,9.13,0,0,0-.38,2.68c0,1.29.78,1.94,2.35,1.94a3.63,3.63,0,0,0,2.05-.64,5.09,5.09,0,0,0,1.51-1.56,3.24,3.24,0,0,0,.57-1.68,2.2,2.2,0,0,0-.57-1.5,10,10,0,0,0-1.54-1.35,8.06,8.06,0,0,1-.94-.76.81.81,0,0,1-.29-.49q0-.28.42-.48a2.45,2.45,0,0,1,1-.18,1.3,1.3,0,0,1,.42,0,.13.13,0,0,1,.09.13.29.29,0,0,1-.08.16.33.33,0,0,0-.09.18s.17.22.49.5a10.67,10.67,0,0,1,1.65,1.64,3.07,3.07,0,0,1,.66,2A4.64,4.64,0,0,1,188.19,128.57Z"/><path class="ar" d="M199.06,132.12a.89.89,0,0,1-.59.21.82.82,0,0,1-.42-.11.37.37,0,0,1-.17-.31q0-1,.15-3.12c.1-1.5.14-2.75.14-3.75s0-1.76-.08-2.37-.19-.92-.41-.92c-.55,0-1.16.69-1.82,2.07s-1.42,3.21-2.27,5.46l-.37,1a.86.86,0,0,1-.33.4.88.88,0,0,1-.48.14,1.09,1.09,0,0,1-.39,0c-.07,0-.11-.14-.13-.3l-.19-2-.37-3.54c-.12-1.4-.26-2.63-.42-3.68a2.89,2.89,0,0,1-.07-.56.68.68,0,0,1,.32-.6,1.16,1.16,0,0,1,.73-.23q.26,0,.36,1.17c.07.79.15,2.06.23,3.81l.1,1.3c.13,1.65.2,2.7.22,3.14,0-.1.09-.21.14-.33a3.12,3.12,0,0,1,.16-.41,61.17,61.17,0,0,1,2.49-5.73c.77-1.53,1.52-2.29,2.24-2.29.51,0,.86.43,1,1.29a18.92,18.92,0,0,1,.36,3.3q.08,2.23.07,6.52A.65.65,0,0,1,199.06,132.12Z"/><path class="ar" d="M210.35,132.12a.89.89,0,0,1-.59.21.77.77,0,0,1-.42-.11.37.37,0,0,1-.17-.31q0-1,.15-3.12c.09-1.5.14-2.75.14-3.75s0-1.76-.08-2.37-.2-.92-.41-.92q-.83,0-1.83,2.07t-2.27,5.46l-.36,1a.89.89,0,0,1-.81.54,1.2,1.2,0,0,1-.4,0,.42.42,0,0,1-.12-.3l-.2-2-.36-3.54c-.12-1.4-.26-2.63-.42-3.68a2.89,2.89,0,0,1-.07-.56.7.7,0,0,1,.31-.6,1.21,1.21,0,0,1,.74-.23q.24,0,.36,1.17c.07.79.15,2.06.23,3.81l.1,1.3c.13,1.65.2,2.7.22,3.14a2.52,2.52,0,0,0,.13-.33c0-.13.1-.26.16-.41q1.34-3.44,2.49-5.73c.78-1.53,1.53-2.29,2.25-2.29.51,0,.85.43,1,1.29a18.92,18.92,0,0,1,.36,3.3q.07,2.23.07,6.52A.65.65,0,0,1,210.35,132.12Z"/><path class="ar" d="M222.91,125.55a6.92,6.92,0,0,1-.65,1.94,8.69,8.69,0,0,1-2,2.77,4.43,4.43,0,0,1-3.23,1.28,3.74,3.74,0,0,1-2.63-1,4,4,0,0,1-1.05-3,8.78,8.78,0,0,1,.88-3.79,8.91,8.91,0,0,1,2.31-3.07,4.57,4.57,0,0,1,2.94-1.19,2.78,2.78,0,0,1,1.54.41,1.32,1.32,0,0,1,.62,1.16,2.22,2.22,0,0,1-1,1.67,8.85,8.85,0,0,1-2.51,1.42A15.43,15.43,0,0,1,215,125a8.57,8.57,0,0,0-.3,2.21,3.25,3.25,0,0,0,.68,2.2,2.38,2.38,0,0,0,1.92.79,3.88,3.88,0,0,0,3.07-1.35,12.81,12.81,0,0,0,2-3c0-.07.08-.19.17-.38s.15-.29.22-.29S222.91,125.31,222.91,125.55Zm-2.74-4.83a1.89,1.89,0,0,0-.94-.22,3,3,0,0,0-1.79.61,5.74,5.74,0,0,0-1.44,1.47,5.47,5.47,0,0,0-.75,1.53,9.1,9.1,0,0,0,2.38-.64,10.21,10.21,0,0,0,2.1-1.13c.57-.41.85-.75.85-1A.68.68,0,0,0,220.17,120.72Z"/><path class="ar" d="M231.78,127a16.51,16.51,0,0,1-1,1.38,17.73,17.73,0,0,1-2.29,2.38,3.35,3.35,0,0,1-2.13.83,1.83,1.83,0,0,1-1.53-.81,3,3,0,0,1-.6-1.86,12.83,12.83,0,0,1,.83-4,16.3,16.3,0,0,1,2.11-4.17c.85-1.18,1.71-1.77,2.56-1.77a1.27,1.27,0,0,1,.93.39,2.56,2.56,0,0,1,.42.59,1.46,1.46,0,0,1,.19.67,4.64,4.64,0,0,1-.11,1c-.07.36-.15.55-.23.55a.31.31,0,0,1-.32-.27,3.65,3.65,0,0,1-.1-.69,4.82,4.82,0,0,0-.15-.85c0-.13-.12-.2-.22-.2-.77,0-1.51.53-2.23,1.6a15,15,0,0,0-1.77,3.73,11.86,11.86,0,0,0-.68,3.28q0,1.62,1.08,1.62A2.72,2.72,0,0,0,228,130a7.14,7.14,0,0,0,1.36-1.11,23.79,23.79,0,0,0,2.06-2.33l.29-.38c.15-.2.26-.31.33-.31s.29.08.29.22A3.39,3.39,0,0,1,231.78,127Z"/><path class="ar" d="M244.47,121.92a3.5,3.5,0,0,1-1.29.34l-2.53.45-1.59.27q0,1.27,0,2.67c0,.93.06,1.75.11,2.45a9.59,9.59,0,0,0,.35,2.19l.27.86a.59.59,0,0,1-.31.45,1.06,1.06,0,0,1-.58.21.32.32,0,0,1-.24-.09.54.54,0,0,1-.17-.28,5.6,5.6,0,0,1-.29-1.27c-.09-.63-.16-1.31-.21-2.07s-.08-1.45-.11-2.34,0-1.75,0-2.59q-1.38.22-2.82.54a13.08,13.08,0,0,1-1.55.27.92.92,0,0,1-.55-.17.54.54,0,0,1-.26-.47.39.39,0,0,1,.22-.41,1.88,1.88,0,0,1,.74-.1,6.58,6.58,0,0,0,1.08-.14l.9-.18,2.24-.42c0-.34,0-.79,0-1.35,0-.75-.05-1.32-.05-1.71a14.06,14.06,0,0,1,.06-1.49,3.6,3.6,0,0,1,.23-.94.73.73,0,0,1,.74-.49c.15,0,.25,0,.29.07a.38.38,0,0,1,.08.27,8.36,8.36,0,0,1-.12.86,10.56,10.56,0,0,0-.13,1.89c0,.6,0,1.28,0,2l0,.67c.73-.12,2.19-.42,4.36-.91.13,0,.24-.15.34-.34s.18-.3.28-.3a.77.77,0,0,1,.55.31.9.9,0,0,1,.28.62A.72.72,0,0,1,244.47,121.92Z"/><path class="ar" d="M255.52,125.55a6.92,6.92,0,0,1-.65,1.94,8.69,8.69,0,0,1-2,2.77,4.43,4.43,0,0,1-3.23,1.28,3.7,3.7,0,0,1-2.62-1,3.92,3.92,0,0,1-1.06-3,8.78,8.78,0,0,1,.88-3.79,8.91,8.91,0,0,1,2.31-3.07,4.57,4.57,0,0,1,2.94-1.19,2.78,2.78,0,0,1,1.54.41,1.29,1.29,0,0,1,.62,1.16,2.22,2.22,0,0,1-1,1.67,8.85,8.85,0,0,1-2.51,1.42,15.26,15.26,0,0,1-3.19.89,8.57,8.57,0,0,0-.3,2.21,3.25,3.25,0,0,0,.68,2.2,2.38,2.38,0,0,0,1.93.79,3.87,3.87,0,0,0,3.06-1.35,12.81,12.81,0,0,0,2-3c0-.07.09-.19.17-.38s.15-.29.22-.29S255.52,125.31,255.52,125.55Zm-2.74-4.83a1.87,1.87,0,0,0-.94-.22,3,3,0,0,0-1.79.61,5.91,5.91,0,0,0-1.44,1.47,5.47,5.47,0,0,0-.75,1.53,9.1,9.1,0,0,0,2.38-.64,10.21,10.21,0,0,0,2.1-1.13c.57-.41.85-.75.85-1A.68.68,0,0,0,252.78,120.72Z"/><path class="ar" d="M267.72,129.81a8.44,8.44,0,0,1-5.28,1.95,10.09,10.09,0,0,1-2.2-.24,6.14,6.14,0,0,1-1.73-.65c-.44-.27-.66-.56-.66-.85a2.89,2.89,0,0,1,.47-1.39c.31-.53.81-1.29,1.49-2.29a6.89,6.89,0,0,1-1.49-.2.52.52,0,0,1-.44-.54c0-.11.14-.17.44-.17l2.23,0a19.23,19.23,0,0,0,1-2.25,5.77,5.77,0,0,0,.45-1.61c0-.13,0-.19-.17-.19a2.19,2.19,0,0,0-.83.27l-.76.36a6.93,6.93,0,0,1-3,.72c-.22,0-.32-.08-.32-.22s.24-.25.71-.4a15.82,15.82,0,0,0,2.58-1.2,6.7,6.7,0,0,1,2.5-1,.92.92,0,0,1,.61.18.52.52,0,0,1,.22.44,24.82,24.82,0,0,1-2,4.83,10.24,10.24,0,0,0,1.84-.34,2.56,2.56,0,0,1,.54-.12.13.13,0,0,1,.12.07.3.3,0,0,1,.05.15.57.57,0,0,1-.39.56,9.88,9.88,0,0,1-2.83.69l-.51.83c-.46.72-.81,1.31-1.06,1.77a2.54,2.54,0,0,0-.36,1c0,.21.4.38,1.2.5a16,16,0,0,0,2.38.18,8.79,8.79,0,0,0,3.07-.51,5.86,5.86,0,0,0,2.25-1.48,3.21,3.21,0,0,0,.25-.9,2.33,2.33,0,0,1,.07-.41c0-.12.08-.18.15-.18s.17.12.21.35a5.62,5.62,0,0,1,.06.9A2.12,2.12,0,0,1,267.72,129.81Z"/><path class="ar" d="M289.2,119.34a2.49,2.49,0,0,0-.41.32,14.94,14.94,0,0,0-2.38,4.15,33.48,33.48,0,0,0-1.74,5.84q-.07.38-.24,1.47l-.13.86a1.07,1.07,0,0,1-.33.62,1.43,1.43,0,0,1-.89.22,5.28,5.28,0,0,1-.84-1.49c-.47-1-1-2.06-1.5-3.2l-1.05-2.31c-.64-1.39-1.17-2.48-1.59-3.26s-.74-1.18-.94-1.18a.19.19,0,0,0-.16.12c0,.09-.08.13-.13.13a.28.28,0,0,1-.21-.11.38.38,0,0,1-.09-.24,1.6,1.6,0,0,1,.36-.83c.24-.34.47-.52.7-.52a.65.65,0,0,1,.37.1l.22.22.14.2a23.21,23.21,0,0,1,2,3.88c.34.73,1.2,2.65,2.55,5.76l.57,1.3a14.14,14.14,0,0,1,.24-2.06,33.5,33.5,0,0,1,1.62-5.74,19,19,0,0,1,2.53-4.76,3.84,3.84,0,0,1,.48-.55.68.68,0,0,1,.48-.16c.08,0,.21.12.39.38a1.27,1.27,0,0,1,.27.5C289.53,119.08,289.42,119.2,289.2,119.34Z"/><path class="ar" d="M298.41,128.57a6.41,6.41,0,0,1-2,2.15,5.1,5.1,0,0,1-3,.89,3.06,3.06,0,0,1-2.43-.9,3.36,3.36,0,0,1-.78-2.26,12.37,12.37,0,0,1,.43-2.92,12.07,12.07,0,0,1,1.21-3.12l.41-.72a3,3,0,0,1,.79-1,1.56,1.56,0,0,1,.94-.33.8.8,0,0,1,.4.11.32.32,0,0,1,.18.28.62.62,0,0,1-.13.24l-.21.28a10.94,10.94,0,0,0-1.35,2,13.78,13.78,0,0,0-1.07,2.47,9.13,9.13,0,0,0-.38,2.68c0,1.29.79,1.94,2.36,1.94a3.63,3.63,0,0,0,2.05-.64,5.21,5.21,0,0,0,1.51-1.56,3.31,3.31,0,0,0,.56-1.68,2.23,2.23,0,0,0-.56-1.5,10.1,10.1,0,0,0-1.55-1.35,8.71,8.71,0,0,1-.93-.76.79.79,0,0,1-.3-.49q0-.28.42-.48a2.48,2.48,0,0,1,1-.18,1.26,1.26,0,0,1,.42,0,.13.13,0,0,1,.1.13.33.33,0,0,1-.09.16.3.3,0,0,0-.08.18s.16.22.49.5a11,11,0,0,1,1.64,1.64,3.07,3.07,0,0,1,.66,2A4.53,4.53,0,0,1,298.41,128.57Z"/><path class="ar" d="M309.07,130.08a6.31,6.31,0,0,1-2.29,1.6,7.58,7.58,0,0,1-3,.6,3.41,3.41,0,0,1-1.42-.2.59.59,0,0,1-.37-.54c0-.15.19-.4.56-.77s.63-.55.77-.55.29,0,.29.12a.26.26,0,0,1-.12.19c-.09.07-.13.13-.13.18s.11.13.31.19a2.35,2.35,0,0,0,.75.1,6,6,0,0,0,2.07-.38,4.88,4.88,0,0,0,1.71-1,1.79,1.79,0,0,0,.66-1.3,1.37,1.37,0,0,0-.42-1.06,2.56,2.56,0,0,0-1-.58c-.42-.12-1.12-.29-2.1-.52s-1.92-.47-2.51-.65a4.4,4.4,0,0,1-1.44-.72,1.33,1.33,0,0,1-.54-1.09,2.85,2.85,0,0,1,1.16-2.16,8.7,8.7,0,0,1,2.65-1.54,7,7,0,0,1,2.3-.57c.56,0,.84.17.84.49a1.35,1.35,0,0,1-.2.65.64.64,0,0,1-.59.36.65.65,0,0,1-.32-.11.65.65,0,0,0-.34-.11,7.22,7.22,0,0,0-3.46,1.27,1.91,1.91,0,0,0-.86,1.55.93.93,0,0,0,.67.87,17.78,17.78,0,0,0,2.52.7,2.36,2.36,0,0,0,.44.11,2.84,2.84,0,0,1,.39.09,11.56,11.56,0,0,1,2.9,1,1.84,1.84,0,0,1,1,1.7A3.07,3.07,0,0,1,309.07,130.08Z"/><path class="ar" d="M327.18,121.61a.86.86,0,0,1-.52.29.46.46,0,0,1-.33-.15,2.75,2.75,0,0,1-.36-.42,1.81,1.81,0,0,0-.45-.42,1.14,1.14,0,0,0-.58-.17c-.48,0-1.11.63-1.92,1.88a29.56,29.56,0,0,0-2.35,4.72c0,.38,0,.86.09,1.43s.06,1,.08,1.27l.07,1a1.21,1.21,0,0,1-.14.6.57.57,0,0,1-.54.25q-.42,0-.54-1.11c-.08-.75-.13-1.83-.15-3.25,0-.36,0-.88,0-1.55s0-1.47-.06-2.4c-.05-1.41-.07-2.42-.07-3q0-.57.69-.57a.46.46,0,0,1,.5.36,6.88,6.88,0,0,1,.08,1.36v3.9a20.22,20.22,0,0,1,1.6-3.26,9.26,9.26,0,0,1,1.68-2.1,2.39,2.39,0,0,1,1.46-.72,2.32,2.32,0,0,1,1,.24,2.27,2.27,0,0,1,.79.63,1.21,1.21,0,0,1,.29.72A.72.72,0,0,1,327.18,121.61Z"/><path class="ar" d="M338.68,125.55a6.92,6.92,0,0,1-.65,1.94,8.69,8.69,0,0,1-2,2.77,4.43,4.43,0,0,1-3.23,1.28,3.74,3.74,0,0,1-2.63-1,4,4,0,0,1-1-3,8.78,8.78,0,0,1,.88-3.79,8.91,8.91,0,0,1,2.31-3.07,4.57,4.57,0,0,1,2.94-1.19,2.78,2.78,0,0,1,1.54.41,1.32,1.32,0,0,1,.62,1.16,2.22,2.22,0,0,1-1,1.67,8.85,8.85,0,0,1-2.51,1.42,15.43,15.43,0,0,1-3.19.89,8.57,8.57,0,0,0-.3,2.21,3.25,3.25,0,0,0,.68,2.2,2.38,2.38,0,0,0,1.93.79,3.87,3.87,0,0,0,3.06-1.35,12.81,12.81,0,0,0,2-3c0-.07.09-.19.17-.38s.15-.29.22-.29S338.68,125.31,338.68,125.55Zm-4.86-11.09a.41.41,0,0,1,.34-.22c.07,0,.18.08.34.25a4.23,4.23,0,0,1,.3.34,15.56,15.56,0,0,0,3.05,2.67l.35.26a.32.32,0,0,1,.14.23.71.71,0,0,1-.16.39.53.53,0,0,1-.41.2,1.76,1.76,0,0,1-1-.46,12,12,0,0,1-1-.89l-.56-.58-1-1-.36.45c-.74.9-1.3,1.55-1.68,2s-.7.61-.95.61a.39.39,0,0,1-.31-.13.45.45,0,0,1-.11-.26,4.83,4.83,0,0,1,1-1.3c.69-.8,1.26-1.48,1.72-2Zm2.12,6.26a1.89,1.89,0,0,0-.94-.22,3,3,0,0,0-1.79.61,5.91,5.91,0,0,0-1.44,1.47,5.47,5.47,0,0,0-.75,1.53,9.1,9.1,0,0,0,2.38-.64,10.21,10.21,0,0,0,2.1-1.13c.57-.41.85-.75.85-1A.68.68,0,0,0,335.94,120.72Z"/><path class="ar" d="M352.34,119.34a2.09,2.09,0,0,0-.41.32,14.94,14.94,0,0,0-2.38,4.15,31.84,31.84,0,0,0-1.74,5.84c-.05.25-.13.74-.25,1.47l-.12.86a1.07,1.07,0,0,1-.33.62,1.44,1.44,0,0,1-.9.22,5.44,5.44,0,0,1-.83-1.49c-.48-1-1-2.06-1.5-3.2l-1.05-2.31c-.64-1.39-1.17-2.48-1.6-3.26s-.73-1.18-.93-1.18a.18.18,0,0,0-.16.12c0,.09-.09.13-.14.13a.24.24,0,0,1-.2-.11.38.38,0,0,1-.09-.24,1.6,1.6,0,0,1,.36-.83c.23-.34.47-.52.7-.52a.59.59,0,0,1,.36.1,1.14,1.14,0,0,1,.22.22,1.46,1.46,0,0,1,.15.2,24.92,24.92,0,0,1,2,3.88q.51,1.1,2.55,5.76l.56,1.3a14.54,14.54,0,0,1,.25-2.06,33.5,33.5,0,0,1,1.62-5.74,19,19,0,0,1,2.53-4.76,2.89,2.89,0,0,1,.48-.55.67.67,0,0,1,.47-.16c.09,0,.22.12.4.38a1.27,1.27,0,0,1,.27.5C352.67,119.08,352.56,119.2,352.34,119.34Z"/><path class="ar" d="M363.19,125.55a6.58,6.58,0,0,1-.65,1.94,8.53,8.53,0,0,1-2,2.77,4.43,4.43,0,0,1-3.23,1.28,3.72,3.72,0,0,1-2.62-1,3.92,3.92,0,0,1-1.06-3,9.44,9.44,0,0,1,3.19-6.86,4.57,4.57,0,0,1,2.95-1.19,2.77,2.77,0,0,1,1.53.41,1.3,1.3,0,0,1,.63,1.16,2.25,2.25,0,0,1-1,1.67,9.06,9.06,0,0,1-2.52,1.42,15.26,15.26,0,0,1-3.19.89,9,9,0,0,0-.29,2.21,3.25,3.25,0,0,0,.67,2.2,2.38,2.38,0,0,0,1.93.79,3.89,3.89,0,0,0,3.07-1.35,13.09,13.09,0,0,0,2-3c0-.07.09-.19.17-.38s.16-.29.22-.29S363.19,125.31,363.19,125.55Zm-2.73-4.83a1.93,1.93,0,0,0-.95-.22,3,3,0,0,0-1.79.61,5.7,5.7,0,0,0-1.43,1.47,5,5,0,0,0-.75,1.53,9.31,9.31,0,0,0,2.38-.64,10.76,10.76,0,0,0,2.1-1.13c.56-.41.84-.75.84-1A.67.67,0,0,0,360.46,120.72Z"/><path class="ar" d="M373.09,130.08a6.31,6.31,0,0,1-2.29,1.6,7.58,7.58,0,0,1-3,.6,3.41,3.41,0,0,1-1.42-.2.59.59,0,0,1-.37-.54c0-.15.19-.4.56-.77s.63-.55.76-.55.3,0,.3.12a.26.26,0,0,1-.12.19c-.09.07-.13.13-.13.18s.11.13.31.19a2.35,2.35,0,0,0,.75.1,6,6,0,0,0,2.07-.38,4.88,4.88,0,0,0,1.71-1,1.79,1.79,0,0,0,.66-1.3,1.37,1.37,0,0,0-.42-1.06,2.56,2.56,0,0,0-1-.58c-.42-.12-1.12-.29-2.1-.52s-1.92-.47-2.51-.65a4.4,4.4,0,0,1-1.44-.72,1.33,1.33,0,0,1-.54-1.09,2.85,2.85,0,0,1,1.16-2.16,8.7,8.7,0,0,1,2.65-1.54,7,7,0,0,1,2.3-.57c.56,0,.84.17.84.49a1.35,1.35,0,0,1-.2.65.64.64,0,0,1-.59.36.65.65,0,0,1-.32-.11.65.65,0,0,0-.34-.11A7.22,7.22,0,0,0,366.9,122a1.91,1.91,0,0,0-.86,1.55.93.93,0,0,0,.67.87,17.78,17.78,0,0,0,2.52.7,2.36,2.36,0,0,0,.44.11,2.84,2.84,0,0,1,.39.09,11.56,11.56,0,0,1,2.9,1,1.84,1.84,0,0,1,1,1.7A3.07,3.07,0,0,1,373.09,130.08Z"/><path class="ar" d="M393.45,130.23a.52.52,0,0,1,.17.3,1.3,1.3,0,0,1-.24.68c-.17.25-.33.38-.5.38a.69.69,0,0,1-.63-.52,3,3,0,0,1-.22-1.2c0-.39,0-1.57.07-3.53l0-.93a1,1,0,0,0-.29-.81c-.74,1.24-1.42,2.32-2.06,3.23a13.06,13.06,0,0,1-2.43,2.59,4.79,4.79,0,0,1-3.09,1.22,1.56,1.56,0,0,1-1.22-.49,1.9,1.9,0,0,1-.43-1.28,6.47,6.47,0,0,1,.89-2.69,23.05,23.05,0,0,1,2.25-3.46,19.15,19.15,0,0,1,2.75-2.88,8.13,8.13,0,0,1,1.45-1,2.31,2.31,0,0,1,1-.26,1.55,1.55,0,0,1,.81.25,2.29,2.29,0,0,1,.71.68,1.84,1.84,0,0,1,.29,1,2.82,2.82,0,0,1-.41,1.45l.41-.13c.18,0,.29.22.32.67q0,.39.06,1.59c0,.8.05,1.47.06,2s0,1.06.05,1.57,0,.91.05,1.2A.69.69,0,0,0,393.45,130.23Zm-6.31-.9a11.44,11.44,0,0,0,2.2-2.34c.64-.91,1.36-2,2.15-3.35a4.38,4.38,0,0,0,.29-1.6,1.34,1.34,0,0,0-.31-.89,1,1,0,0,0-.82-.38,2.75,2.75,0,0,0-1.57.83,17.45,17.45,0,0,0-2.33,2.49,21,21,0,0,0-2,3.08,5.65,5.65,0,0,0-.81,2.41c0,.49.23.73.69.73A4,4,0,0,0,387.14,129.33Zm3.89-11a.51.51,0,0,1-.35.12,2.84,2.84,0,0,1-1.24-.73,15.18,15.18,0,0,1-1.71-1.59c-.52-.56-.78-1-.78-1.16a1,1,0,0,1,.78-.79.35.35,0,0,1,.28.12,5.46,5.46,0,0,1,.38.55c.15.24.35.54.59.88a12.45,12.45,0,0,0,1.38,1.4c.54.5.81.8.81.88A.42.42,0,0,1,391,118.29Z"/><path class="ar" d="M405.18,131.17a1.64,1.64,0,0,1-.71.15c-.2,0-.38-.23-.56-.7a6.62,6.62,0,0,1-.25-2.12q0-2.77.08-6.7t.11-5.92a4.36,4.36,0,0,1,.26-1.32.83.83,0,0,1,.82-.61.26.26,0,0,1,.26.2,3.48,3.48,0,0,1,.06.8,1.36,1.36,0,0,1,0,.16c0,.09,0,.25,0,.48q-.45,6.45-.44,12.59a4.43,4.43,0,0,0,.35,1.67q.36.89.36.93C405.5,130.94,405.39,131.07,405.18,131.17Z"/><path class="ar" d="M418.38,130.23a.52.52,0,0,1,.17.3,1.3,1.3,0,0,1-.24.68c-.17.25-.33.38-.5.38a.69.69,0,0,1-.63-.52,3,3,0,0,1-.22-1.2c0-.39,0-1.57.07-3.53l0-.93a1,1,0,0,0-.29-.81c-.74,1.24-1.42,2.32-2.06,3.23a13.06,13.06,0,0,1-2.43,2.59,4.79,4.79,0,0,1-3.09,1.22,1.56,1.56,0,0,1-1.22-.49,1.9,1.9,0,0,1-.43-1.28,6.47,6.47,0,0,1,.89-2.69,23.05,23.05,0,0,1,2.25-3.46,19.15,19.15,0,0,1,2.75-2.88,8.13,8.13,0,0,1,1.45-1,2.31,2.31,0,0,1,1-.26,1.55,1.55,0,0,1,.81.25,2.19,2.19,0,0,1,.71.68,1.76,1.76,0,0,1,.29,1,2.82,2.82,0,0,1-.41,1.45l.41-.13c.18,0,.29.22.32.67q0,.39.06,1.59c0,.8.05,1.47.07,2s0,1.06,0,1.57,0,.91.05,1.2A.77.77,0,0,0,418.38,130.23Zm-6.31-.9a11.44,11.44,0,0,0,2.2-2.34c.65-.91,1.36-2,2.15-3.35a4.38,4.38,0,0,0,.29-1.6,1.34,1.34,0,0,0-.31-.89,1,1,0,0,0-.82-.38,2.75,2.75,0,0,0-1.57.83,17.45,17.45,0,0,0-2.33,2.49,21,21,0,0,0-2,3.08,5.65,5.65,0,0,0-.81,2.41c0,.49.23.73.69.73A4,4,0,0,0,412.07,129.33Z"/><path class="ar" d="M436.16,121.61a.88.88,0,0,1-.53.29.48.48,0,0,1-.33-.15,2.75,2.75,0,0,1-.36-.42,1.52,1.52,0,0,0-.45-.42,1.14,1.14,0,0,0-.58-.17c-.47,0-1.11.63-1.91,1.88a29.52,29.52,0,0,0-2.36,4.72c0,.38.05.86.09,1.43s.07,1,.08,1.27l.08,1a1.21,1.21,0,0,1-.15.6.57.57,0,0,1-.54.25q-.42,0-.54-1.11c-.08-.75-.13-1.83-.15-3.25,0-.36,0-.88,0-1.55s0-1.47-.06-2.4c-.05-1.41-.08-2.42-.08-3q0-.57.69-.57a.45.45,0,0,1,.5.36,6.65,6.65,0,0,1,.09,1.36v3.9a19.44,19.44,0,0,1,1.59-3.26,9.84,9.84,0,0,1,1.68-2.1,2,2,0,0,1,2.5-.48,2.33,2.33,0,0,1,.78.63,1.15,1.15,0,0,1,.29.72A.74.74,0,0,1,436.16,121.61Z"/><path class="ar" d="M447.65,125.55a6.58,6.58,0,0,1-.65,1.94,8.53,8.53,0,0,1-2,2.77,4.43,4.43,0,0,1-3.23,1.28,3.72,3.72,0,0,1-2.62-1,3.92,3.92,0,0,1-1.06-3,9.44,9.44,0,0,1,3.19-6.86,4.57,4.57,0,0,1,2.95-1.19,2.77,2.77,0,0,1,1.53.41,1.3,1.3,0,0,1,.63,1.16,2.25,2.25,0,0,1-1,1.67,9.06,9.06,0,0,1-2.52,1.42,15.26,15.26,0,0,1-3.19.89,9,9,0,0,0-.29,2.21,3.25,3.25,0,0,0,.67,2.2,2.38,2.38,0,0,0,1.93.79,3.89,3.89,0,0,0,3.07-1.35,13.09,13.09,0,0,0,2-3c0-.07.09-.19.17-.38s.16-.29.22-.29S447.65,125.31,447.65,125.55Zm-2.73-4.83a1.93,1.93,0,0,0-.95-.22,3,3,0,0,0-1.79.61,5.7,5.7,0,0,0-1.43,1.47,5,5,0,0,0-.75,1.53,9.31,9.31,0,0,0,2.38-.64,10.76,10.76,0,0,0,2.1-1.13c.56-.41.84-.75.84-1A.67.67,0,0,0,444.92,120.72Zm1.14-4.43a16.08,16.08,0,0,1-1.71,1.58,2.9,2.9,0,0,1-1.24.74.51.51,0,0,1-.35-.12.43.43,0,0,1-.14-.32c0-.08.27-.38.81-.89a11.68,11.68,0,0,0,1.38-1.4c.24-.34.44-.63.59-.88a4.09,4.09,0,0,1,.38-.54.35.35,0,0,1,.28-.12,1,1,0,0,1,.78.78C446.84,115.34,446.58,115.72,446.06,116.29Z"/><path class="ar" d="M460,130.23a.52.52,0,0,1,.17.3,1.24,1.24,0,0,1-.25.68c-.16.25-.32.38-.49.38s-.49-.17-.64-.52a3.13,3.13,0,0,1-.22-1.2c0-.39,0-1.57.08-3.53l0-.93a1,1,0,0,0-.29-.81c-.74,1.24-1.43,2.32-2.06,3.23a13.06,13.06,0,0,1-2.43,2.59,4.84,4.84,0,0,1-3.09,1.22,1.56,1.56,0,0,1-1.22-.49,1.85,1.85,0,0,1-.43-1.28,6.43,6.43,0,0,1,.88-2.69,23.15,23.15,0,0,1,2.26-3.46,18.66,18.66,0,0,1,2.75-2.88,8.13,8.13,0,0,1,1.45-1,2.31,2.31,0,0,1,.95-.26,1.5,1.5,0,0,1,.81.25,2.21,2.21,0,0,1,.72.68,1.84,1.84,0,0,1,.29,1,2.74,2.74,0,0,1-.42,1.45l.42-.13c.18,0,.29.22.32.67q0,.39.06,1.59c0,.8.05,1.47.06,2s0,1.06.05,1.57,0,.91.05,1.2A.69.69,0,0,0,460,130.23Zm-6.31-.9a11.44,11.44,0,0,0,2.2-2.34c.64-.91,1.36-2,2.14-3.35a4.18,4.18,0,0,0,.3-1.6,1.34,1.34,0,0,0-.31-.89,1,1,0,0,0-.82-.38,2.75,2.75,0,0,0-1.57.83,16.9,16.9,0,0,0-2.33,2.49,21,21,0,0,0-2,3.08,5.65,5.65,0,0,0-.81,2.41c0,.49.23.73.69.73A4,4,0,0,0,453.64,129.33Z"/><path class="ar" d="M464.63,131.17a1.64,1.64,0,0,1-.71.15c-.19,0-.38-.23-.55-.7a6.57,6.57,0,0,1-.26-2.12q0-2.77.09-6.7t.11-5.92a4.08,4.08,0,0,1,.26-1.32.83.83,0,0,1,.82-.61.26.26,0,0,1,.26.2,3.48,3.48,0,0,1,.06.8s0,.07,0,.16a4.64,4.64,0,0,0,0,.48q-.44,6.45-.44,12.59a4.45,4.45,0,0,0,.36,1.67c.23.59.35.9.35.93S464.85,131.07,464.63,131.17Z"/><path class="ar" d="M468.29,116.45a1.42,1.42,0,0,1-.85-.34c-.28-.23-.43-.42-.43-.57a.71.71,0,0,1,.26-.51.75.75,0,0,1,.53-.25,1.4,1.4,0,0,1,.61.39,5.34,5.34,0,0,1,.44.52,1.1,1.1,0,0,1,.25.39C469.1,116.33,468.83,116.45,468.29,116.45Zm1.22,15.45a.78.78,0,0,1-.48.11q-.34,0-.51-1.11c-.1-.72-.21-2.08-.33-4.1-.06-1.32-.12-2.62-.17-3.89s-.08-2.24-.1-2.93a.72.72,0,0,1,.09-.4.36.36,0,0,1,.33-.14.66.66,0,0,1,.71.47,6.94,6.94,0,0,1,.15,1.79l0,2.9c0,1.65.05,3,.15,4,0,.05.07.57.22,1.57a9.6,9.6,0,0,1,.17,1.38A.44.44,0,0,1,469.51,131.9Z"/><path class="ar" d="M483.35,121.92a3.5,3.5,0,0,1-1.29.34l-2.53.45-1.6.27c0,.85,0,1.74,0,2.67s.06,1.75.11,2.45a9.59,9.59,0,0,0,.35,2.19c.16.51.25.79.26.86a.57.57,0,0,1-.3.45,1.06,1.06,0,0,1-.58.21.32.32,0,0,1-.24-.09.62.62,0,0,1-.18-.28,6.41,6.41,0,0,1-.28-1.27c-.09-.63-.16-1.31-.21-2.07s-.08-1.45-.11-2.34,0-1.75,0-2.59c-.92.15-1.86.33-2.83.54a12.73,12.73,0,0,1-1.54.27.92.92,0,0,1-.55-.17.52.52,0,0,1-.26-.47.39.39,0,0,1,.22-.41,1.88,1.88,0,0,1,.74-.1,6.58,6.58,0,0,0,1.08-.14l.9-.18,2.24-.42c0-.34,0-.79-.05-1.35,0-.75,0-1.32,0-1.71a14.06,14.06,0,0,1,.06-1.49,3.6,3.6,0,0,1,.23-.94.73.73,0,0,1,.74-.49.41.41,0,0,1,.29.07.38.38,0,0,1,.08.27,7,7,0,0,1-.13.86,11.78,11.78,0,0,0-.12,1.89c0,.6,0,1.28.05,2l0,.67c.73-.12,2.19-.42,4.36-.91a.55.55,0,0,0,.33-.34c.09-.2.19-.3.29-.3a.77.77,0,0,1,.55.31.9.9,0,0,1,.28.62A.72.72,0,0,1,483.35,121.92Z"/><path class="ar" d="M494.4,125.55a6.92,6.92,0,0,1-.65,1.94,8.85,8.85,0,0,1-2,2.77,4.44,4.44,0,0,1-3.23,1.28,3.74,3.74,0,0,1-2.63-1,4,4,0,0,1-1.05-3,8.78,8.78,0,0,1,.88-3.79,8.91,8.91,0,0,1,2.31-3.07,4.57,4.57,0,0,1,2.94-1.19,2.78,2.78,0,0,1,1.54.41,1.32,1.32,0,0,1,.62,1.16,2.22,2.22,0,0,1-1,1.67,8.85,8.85,0,0,1-2.51,1.42,15.43,15.43,0,0,1-3.19.89,8.57,8.57,0,0,0-.3,2.21,3.25,3.25,0,0,0,.68,2.2,2.38,2.38,0,0,0,1.92.79,3.88,3.88,0,0,0,3.07-1.35,12.47,12.47,0,0,0,2-3c0-.07.09-.19.18-.38s.15-.29.22-.29S494.4,125.31,494.4,125.55Zm-2.74-4.83a1.89,1.89,0,0,0-.94-.22,3,3,0,0,0-1.79.61,5.74,5.74,0,0,0-1.44,1.47,5.47,5.47,0,0,0-.75,1.53,9.2,9.2,0,0,0,2.38-.64,10.21,10.21,0,0,0,2.1-1.13c.57-.41.85-.75.85-1A.68.68,0,0,0,491.66,120.72Zm1.14-4.43a16,16,0,0,1-1.7,1.58,3,3,0,0,1-1.24.74.52.52,0,0,1-.36-.12.42.42,0,0,1-.13-.32c0-.08.27-.38.81-.89a10.76,10.76,0,0,0,1.37-1.4c.25-.34.44-.63.59-.88a5.4,5.4,0,0,1,.38-.54.38.38,0,0,1,.28-.12,1,1,0,0,1,.79.78C493.59,115.34,493.33,115.72,492.8,116.29Z"/></svg>